<svg width="40" height="40" viewBox="0 0 40 40" fill="none" xmlns="http://www.w3.org/2000/svg">
<path d="M28.4448 3.78593C29.1663 3.48711 29.9395 3.33331 30.7203 3.33331C31.5012 3.33331 32.2743 3.48711 32.9958 3.78593C33.7172 4.08475 34.3727 4.52273 34.9248 5.07486C35.477 5.627 35.915 6.28248 36.2138 7.0039C36.5125 7.7253 36.6663 8.4985 36.6663 9.27933C36.6663 10.0602 36.5125 10.8334 36.2138 11.5548C35.915 12.2762 35.477 12.9317 34.9248 13.4838L34.0612 14.3474L25.6523 5.93845L26.5158 5.07486C27.068 4.52273 27.7235 4.08475 28.4448 3.78593Z" fill="white"/>
<path d="M23.2953 8.29547L6.09067 25.5001C5.88557 25.7051 5.73755 25.9603 5.66124 26.2401L3.39177 34.5615C3.2344 35.1385 3.39829 35.7556 3.82121 36.1785C4.24412 36.6015 4.86122 36.7653 5.43824 36.608L13.7596 34.3385C14.0395 34.2621 14.2945 34.1141 14.4996 33.909L31.7042 16.7045L23.2953 8.29547Z" fill="white"/>
</svg>
