<svg width="134" height="142" viewBox="0 0 134 142" fill="none" xmlns="http://www.w3.org/2000/svg">
<g filter="url(#filter0_d_3646_4248)">
<path d="M61 18.4641C64.7128 16.3205 69.2872 16.3205 73 18.4641L95.641 31.5359C99.3538 33.6795 101.641 37.641 101.641 41.9282V68.0718C101.641 72.359 99.3538 76.3205 95.641 78.4641L73 91.5359C69.2872 93.6795 64.7128 93.6795 61 91.5359L38.359 78.4641C34.6462 76.3205 32.359 72.359 32.359 68.0718V41.9282C32.359 37.641 34.6462 33.6795 38.359 31.5359L61 18.4641Z" fill="#5566DE"/>
<path d="M61.25 18.8971C64.8081 16.8428 69.1919 16.8428 72.75 18.8971L95.391 31.9689C98.9491 34.0232 101.141 37.8196 101.141 41.9282V68.0718C101.141 72.1804 98.9491 75.9768 95.391 78.0311L72.75 91.1029C69.1919 93.1572 64.8081 93.1572 61.25 91.1029L38.609 78.0311C35.0509 75.9768 32.859 72.1803 32.859 68.0718V41.9282C32.859 37.8196 35.0509 34.0232 38.609 31.9689L61.25 18.8971Z" stroke="white"/>
</g>
<path d="M65.4375 68.0227H60.75C58.4583 68.0227 56.5833 69.8977 56.5833 72.1894V72.7102H54.5C53.6458 72.7102 52.9375 73.4186 52.9375 74.2727C52.9375 75.1269 53.6458 75.8352 54.5 75.8352H79.5C80.3542 75.8352 81.0625 75.1269 81.0625 74.2727C81.0625 73.4186 80.3542 72.7102 79.5 72.7102H77.4167V72.1894C77.4167 69.8977 75.5417 68.0227 73.25 68.0227H68.5625V63.2519C68.0417 63.3144 67.5208 63.3352 67 63.3352C66.4792 63.3352 65.9583 63.3144 65.4375 63.2519V68.0227Z" fill="white"/>
<path d="M80.499 54.25C81.874 53.7292 83.0824 52.875 84.0407 51.9167C85.9782 49.7709 87.249 47.2084 87.249 44.2084C87.249 41.2084 84.8949 38.8542 81.8949 38.8542H80.7282C79.374 36.0834 76.5407 34.1667 73.249 34.1667H60.749C57.4574 34.1667 54.624 36.0834 53.2699 38.8542H52.1032C49.1032 38.8542 46.749 41.2084 46.749 44.2084C46.749 47.2084 48.0199 49.7709 49.9574 51.9167C50.9157 52.875 52.124 53.7292 53.499 54.25C55.6657 59.5834 60.874 63.3334 66.999 63.3334C73.124 63.3334 78.3324 59.5834 80.499 54.25ZM72.9157 47.6042L71.624 49.1875C71.4157 49.4167 71.2699 49.875 71.2907 50.1875L71.4157 52.2292C71.499 53.4792 70.6032 54.125 69.4365 53.6667L67.5407 52.9167C67.249 52.8125 66.749 52.8125 66.4574 52.9167L64.5615 53.6667C63.3949 54.125 62.499 53.4792 62.5824 52.2292L62.7074 50.1875C62.7282 49.875 62.5824 49.4167 62.374 49.1875L61.0824 47.6042C60.2699 46.6459 60.624 45.5834 61.8324 45.2709L63.8115 44.7709C64.124 44.6875 64.499 44.3959 64.6657 44.125L65.7699 42.4167C66.4574 41.3542 67.5407 41.3542 68.2282 42.4167L69.3324 44.125C69.499 44.3959 69.874 44.6875 70.1865 44.7709L72.1657 45.2709C73.374 45.5834 73.7282 46.6459 72.9157 47.6042Z" fill="white"/>
<defs>
<filter id="filter0_d_3646_4248" x="0.359375" y="0.856384" width="133.281" height="140.287" filterUnits="userSpaceOnUse" color-interpolation-filters="sRGB">
<feFlood flood-opacity="0" result="BackgroundImageFix"/>
<feColorMatrix in="SourceAlpha" type="matrix" values="0 0 0 0 0 0 0 0 0 0 0 0 0 0 0 0 0 0 127 0" result="hardAlpha"/>
<feOffset dy="16"/>
<feGaussianBlur stdDeviation="16"/>
<feComposite in2="hardAlpha" operator="out"/>
<feColorMatrix type="matrix" values="0 0 0 0 0.210031 0 0 0 0 0.0633751 0 0 0 0 0.65 0 0 0 0.4 0"/>
<feBlend mode="normal" in2="BackgroundImageFix" result="effect1_dropShadow_3646_4248"/>
<feBlend mode="normal" in="SourceGraphic" in2="effect1_dropShadow_3646_4248" result="shape"/>
</filter>
</defs>
</svg>
