<svg width="134" height="142" viewBox="0 0 134 142" fill="none" xmlns="http://www.w3.org/2000/svg">
<g filter="url(#filter0_d_3646_4243)">
<path d="M61 18.4641C64.7128 16.3205 69.2872 16.3205 73 18.4641L95.641 31.5359C99.3538 33.6795 101.641 37.641 101.641 41.9282V68.0718C101.641 72.359 99.3538 76.3205 95.641 78.4641L73 91.5359C69.2872 93.6795 64.7128 93.6795 61 91.5359L38.359 78.4641C34.6462 76.3205 32.359 72.359 32.359 68.0718V41.9282C32.359 37.641 34.6462 33.6795 38.359 31.5359L61 18.4641Z" fill="#5566DE"/>
<path d="M61.25 18.8971C64.8081 16.8428 69.1919 16.8428 72.75 18.8971L95.391 31.9689C98.9491 34.0232 101.141 37.8196 101.141 41.9282V68.0718C101.141 72.1804 98.9491 75.9768 95.391 78.0311L72.75 91.1029C69.1919 93.1572 64.8081 93.1572 61.25 91.1029L38.609 78.0311C35.0509 75.9768 32.859 72.1803 32.859 68.0718V41.9282C32.859 37.8196 35.0509 34.0232 38.609 31.9689L61.25 18.8971Z" stroke="white"/>
</g>
<path d="M56.583 36.6666C57.2734 36.6666 57.833 37.2263 57.833 37.9166V41L60.7008 40.4264C63.4517 39.8762 66.3032 40.138 68.9078 41.1799L69.2473 41.3157C71.8492 42.3564 74.713 42.5508 77.4317 41.8711C78.6938 41.5556 79.9163 42.5102 79.9163 43.8111V56.0895C79.9163 57.1633 79.1855 58.0993 78.1437 58.3598L77.7863 58.4491C74.837 59.1865 71.7305 58.9756 68.9078 57.8466C66.3032 56.8046 63.4517 56.543 60.7008 57.0931L57.833 57.6666V71.25C57.833 71.9403 57.2734 72.5 56.583 72.5C55.8927 72.5 55.333 71.9403 55.333 71.25V37.9166C55.333 37.2263 55.8927 36.6666 56.583 36.6666Z" fill="white"/>
<defs>
<filter id="filter0_d_3646_4243" x="0.359375" y="0.856445" width="133.281" height="140.287" filterUnits="userSpaceOnUse" color-interpolation-filters="sRGB">
<feFlood flood-opacity="0" result="BackgroundImageFix"/>
<feColorMatrix in="SourceAlpha" type="matrix" values="0 0 0 0 0 0 0 0 0 0 0 0 0 0 0 0 0 0 127 0" result="hardAlpha"/>
<feOffset dy="16"/>
<feGaussianBlur stdDeviation="16"/>
<feComposite in2="hardAlpha" operator="out"/>
<feColorMatrix type="matrix" values="0 0 0 0 0.210031 0 0 0 0 0.0633751 0 0 0 0 0.65 0 0 0 0.4 0"/>
<feBlend mode="normal" in2="BackgroundImageFix" result="effect1_dropShadow_3646_4243"/>
<feBlend mode="normal" in="SourceGraphic" in2="effect1_dropShadow_3646_4243" result="shape"/>
</filter>
</defs>
</svg>
